<svg xmlns="http://www.w3.org/2000/svg" width="29.581" height="29.585" viewBox="0 0 29.581 29.585"><path d="M14.794,29.57a14.784,14.784,0,1,1,5.756-1.162,14.793,14.793,0,0,1-5.756,1.162Zm-2.935-9.406c.411.111.827.219,1.272.33l-.652,2.613,1.6.4.661-2.65a11.363,11.363,0,0,0,2.089.229A3.334,3.334,0,0,0,20.373,18.7a2.8,2.8,0,0,0-1.468-3.875,2.557,2.557,0,0,0,2.04-2.346c.249-1.668-.769-2.836-3.2-3.674L18.4,6.179l-1.6-.4-.637,2.556q-.627-.154-1.256-.3l-.024-.005.641-2.572L13.928,5.07l-.655,2.624-.068-.015c-.33-.076-.641-.148-.952-.225V7.446l-2.2-.552L9.627,8.6c.193.044,1.157.267,1.16.287a.852.852,0,0,1,.744.93l-.745,2.992a1.389,1.389,0,0,1,.166.053l-.169-.042-1.045,4.19a.585.585,0,0,1-.542.4.792.792,0,0,1-.189-.025H9c-.063,0-1.148-.288-1.159-.291l-.793,1.829,2.079.518c.237.06.474.121.7.181h.005l.43.112-.661,2.654,1.6.4.655-2.626Z" transform="translate(-0.01 0.015)" fill="#faab53"/><path d="M3.894,2.407C3.471,4.127.85,3.254,0,3.039L.75,0C1.6.214,4.338.614,3.894,2.407Z" transform="translate(13.798 9.867)" fill="#faab53"/><path d="M4.88,2.8c-.493,1.932-3.806.888-4.88.626L.871,0C1.945.263,5.39.785,4.88,2.8Z" transform="translate(12.319 14.796)" fill="#faab53"/></svg>