<svg xmlns="http://www.w3.org/2000/svg" width="49" height="59" viewBox="0 0 49 59"><g transform="translate(-351 -267)"><g transform="translate(400 326) rotate(180)" fill="#fff" stroke="#000" stroke-width="2"><rect width="49" height="59" rx="8" stroke="none"/><rect x="1" y="1" width="47" height="57" rx="7" fill="none"/></g><g transform="translate(363 279)"><circle cx="10" cy="10" r="10" transform="translate(2 2)" fill="none" stroke="#000" stroke-linecap="round" stroke-linejoin="round" stroke-width="2"/><path d="M2,12H22" fill="none" stroke="#000" stroke-linecap="round" stroke-linejoin="round" stroke-width="2"/><path d="M12,2a15.3,15.3,0,0,1,4,10,15.3,15.3,0,0,1-4,10A15.3,15.3,0,0,1,8,12,15.3,15.3,0,0,1,12,2Z" fill="none" stroke="#000" stroke-linecap="round" stroke-linejoin="round" stroke-width="2"/></g><path d="M3231.169,897.215h10.236" transform="translate(-2861.669 -590)" fill="none" stroke="#000" stroke-linecap="round" stroke-width="2"/><path d="M3231.169,897.215h19.4" transform="translate(-2865.669 -584)" fill="none" stroke="#000" stroke-linecap="round" stroke-width="2"/></g></svg>