<svg xmlns="http://www.w3.org/2000/svg" xmlns:xlink="http://www.w3.org/1999/xlink" width="111" height="111" viewBox="0 0 111 111"><defs><linearGradient id="a" x1="0.5" x2="0.5" y2="1" gradientUnits="objectBoundingBox"><stop offset="0" stop-color="#00ca78"/><stop offset="1" stop-color="#00ff97" stop-opacity="0"/></linearGradient></defs><g transform="translate(-120 -99)"><g transform="translate(146.826 117.583)"><path d="M4.34,23.735a2.34,2.34,0,0,1-1.554-4.089l10.533-9.362a2.329,2.329,0,0,1,1.835-.573L33.37,11.917,43.69,2.14a2.341,2.341,0,0,1,3.218,3.4L35.791,16.074A2.35,2.35,0,0,1,33.9,16.7L15.638,14.482,5.894,23.145a2.333,2.333,0,0,1-1.554.59Z" transform="translate(2.682 0.671)" fill="#00ca78"/><path d="M26.947,12.7a1.747,1.747,0,0,1-1.241-.515L17.514,4a1.754,1.754,0,0,1,1.241-3h8.192A1.756,1.756,0,0,1,28.7,2.755v8.192A1.755,1.755,0,0,1,26.947,12.7Z" transform="translate(22.79)" fill="#00ca78"/><path d="M15.043,19.926v6.437H1V19.926A2.927,2.927,0,0,1,3.926,17h8.192A2.927,2.927,0,0,1,15.043,19.926Z" transform="translate(1.341 21.449)"/><path d="M23.043,13.926v20.48H9V13.926A2.927,2.927,0,0,1,11.926,11h8.192A2.927,2.927,0,0,1,23.043,13.926Z" transform="translate(12.065 13.406)"/><path d="M31.043,15.926v15.8H17v-15.8A2.927,2.927,0,0,1,19.926,13h8.192A2.927,2.927,0,0,1,31.043,15.926Z" transform="translate(22.79 16.087)"/><path d="M54.419,26.011H1.755a1.755,1.755,0,0,1,0-3.511H54.419a1.755,1.755,0,0,1,0,3.511Z" transform="translate(0 28.823)"/></g><circle cx="55.5" cy="55.5" r="55.5" transform="translate(120 99)" opacity="0.1" fill="url(#a)"/></g></svg>