<svg xmlns="http://www.w3.org/2000/svg" width="84.379" height="171.635" viewBox="0 0 84.379 171.635">
  <g id="Verify_Email_ic" data-name="Verify Email ic" transform="translate(-164.108 -110.514)">
    <g id="send-2" transform="matrix(0.985, -0.174, 0.174, 0.985, 195.198, 116.532)">
      <path id="Path_21" data-name="Path 21" d="M45.707,2.293a1,1,0,0,0-1.082-.22l-42,17a1,1,0,0,0-.051,1.833l14.081,6.626,11.715-8.6a.5.5,0,0,1,.7.7l-8.6,11.715L27.1,45.427A1,1,0,0,0,28,46h.028a1,1,0,0,0,.9-.625l17-42A1,1,0,0,0,45.707,2.293Z" fill="#00ca78"/>
    </g>
    <path id="Path_22" data-name="Path 22" d="M3329.647-112.71s-32.4,48.029,4.844,55.318,3.3-48.628-36.645-16.675-20.669,93.162,13.28,91.165" transform="translate(-3110.336 264)" fill="none" stroke="#000" stroke-width="2" stroke-dasharray="5"/>
    <g id="send-2-2" data-name="send-2" transform="matrix(0.985, -0.174, 0.174, 0.985, 195.198, 116.532)">
      <path id="Path_21-2" data-name="Path 21" d="M45.707,2.293a1,1,0,0,0-1.082-.22l-42,17a1,1,0,0,0-.051,1.833l14.081,6.626,11.715-8.6a.5.5,0,0,1,.7.7l-8.6,11.715L27.1,45.427A1,1,0,0,0,28,46h.028a1,1,0,0,0,.9-.625l17-42A1,1,0,0,0,45.707,2.293Z" fill="#00ca78"/>
    </g>
  </g>
</svg>
